<?xml version="1.0" standalone="no"?>
<!DOCTYPE svg PUBLIC "-//W3C//DTD SVG 20010904//EN"
 "http://www.w3.org/TR/2001/REC-SVG-20010904/DTD/svg10.dtd">
<svg version="1.0" xmlns="http://www.w3.org/2000/svg"
 width="1280.000000pt" height="1223.000000pt" viewBox="0 0 1280.000000 1223.000000"
 preserveAspectRatio="xMidYMid meet">
<metadata>
Created by potrace 1.15, written by Peter Selinger 2001-2017
</metadata>
<g transform="translate(0.000000,1223.000000) scale(0.100000,-0.100000)"
fill="#000000" stroke="none">
<path d="M8217 12216 c-103 -38 -179 -124 -267 -301 -140 -280 -261 -765 -340
-1364 -32 -241 -38 -236 96 -65 667 853 946 1467 756 1667 -60 64 -169 92
-245 63z"/>
<path d="M4298 11455 c-77 -21 -170 -70 -212 -110 -58 -57 -80 -115 -79 -205
1 -188 127 -417 538 -975 395 -537 543 -791 605 -1039 18 -72 21 -110 18 -195
-3 -98 -6 -112 -40 -183 -45 -94 -136 -189 -223 -232 -49 -24 -67 -28 -119
-24 -37 2 -81 13 -111 28 -78 38 -233 201 -390 410 -243 322 -366 430 -490
430 -121 0 -255 -121 -255 -232 0 -33 32 -113 66 -163 18 -27 97 -120 174
-205 216 -237 267 -325 258 -444 -5 -52 -12 -74 -42 -119 -64 -97 -139 -139
-245 -139 -112 0 -201 42 -475 225 -292 195 -404 225 -522 138 -55 -40 -106
-130 -112 -196 -3 -42 1 -65 21 -108 46 -102 137 -181 432 -377 274 -182 362
-261 416 -375 50 -104 37 -222 -32 -287 -61 -58 -143 -79 -304 -79 -222 1
-357 26 -1020 186 -259 62 -540 127 -625 144 -323 62 -522 64 -632 4 -65 -35
-90 -69 -96 -131 -4 -44 -1 -52 28 -86 99 -112 387 -177 1055 -235 602 -53
701 -63 860 -82 454 -55 702 -136 760 -250 44 -85 -23 -277 -134 -383 -107
-102 -261 -156 -503 -177 -200 -17 -449 0 -953 66 -523 68 -539 69 -795 70
-229 0 -251 -2 -329 -24 -201 -57 -289 -178 -279 -380 7 -129 48 -195 153
-242 41 -19 72 -24 180 -27 204 -6 398 32 979 194 584 162 821 212 1066 221
124 5 172 2 240 -11 164 -33 272 -109 329 -229 40 -85 54 -166 49 -289 -3 -83
-9 -112 -27 -148 -78 -150 -208 -232 -581 -370 -446 -165 -554 -253 -537 -438
5 -65 45 -152 79 -176 49 -34 133 -12 223 58 22 17 119 105 215 196 270 255
370 320 490 322 80 1 134 -27 215 -114 254 -268 229 -471 -78 -656 -79 -48
-150 -83 -465 -225 -317 -144 -422 -232 -422 -353 0 -95 110 -233 233 -294 60
-29 73 -32 139 -29 106 6 169 41 289 159 97 97 156 173 359 461 193 275 313
380 418 364 68 -10 145 -92 205 -216 179 -373 49 -745 -424 -1204 -125 -122
-265 -242 -649 -560 -304 -251 -462 -405 -548 -533 -68 -102 -92 -168 -92
-252 0 -117 91 -236 253 -328 220 -126 379 -115 521 38 139 151 207 313 451
1075 204 637 355 913 581 1065 108 72 191 95 329 94 132 -2 236 -29 391 -104
165 -80 219 -161 217 -330 -1 -102 -24 -203 -99 -437 -121 -380 -131 -489 -52
-579 44 -50 101 -76 179 -82 82 -6 129 9 181 56 74 67 119 183 178 467 68 320
113 452 180 528 116 132 319 125 420 -15 41 -56 67 -146 81 -279 20 -189 -2
-417 -106 -1089 -71 -462 -87 -631 -82 -859 3 -146 8 -212 22 -261 38 -139 97
-219 194 -264 67 -31 231 -29 316 4 194 74 265 219 252 514 -9 212 -55 422
-207 941 -199 680 -249 939 -220 1144 22 162 74 247 184 303 49 25 77 32 142
36 48 3 96 0 117 -7 93 -31 183 -125 253 -264 19 -37 68 -148 109 -248 41 -99
95 -220 121 -269 77 -150 178 -222 286 -206 64 10 139 48 175 89 93 106 67
213 -149 612 -84 156 -125 256 -138 338 -20 124 16 206 119 275 140 93 268
111 387 52 176 -86 301 -266 540 -771 63 -134 144 -302 179 -373 127 -252 253
-414 375 -481 48 -26 65 -30 136 -30 74 0 87 3 156 38 193 98 270 234 218 387
-60 178 -212 334 -705 725 -501 397 -691 591 -751 768 -70 203 60 400 290 440
154 26 344 -51 571 -234 44 -35 208 -190 365 -344 370 -363 495 -468 645 -542
89 -44 144 -56 232 -51 101 6 136 24 158 83 55 142 -59 300 -359 499 -61 40
-235 146 -386 236 -447 265 -632 398 -726 523 -55 74 -68 98 -83 161 -23 92
13 193 100 281 27 28 49 56 49 64 0 28 55 150 97 214 51 77 111 127 191 159
74 29 252 31 352 4 206 -55 445 -169 890 -425 297 -172 504 -275 630 -317 69
-23 103 -28 181 -29 89 0 99 2 144 30 53 33 95 97 116 176 16 58 7 90 -37 139
-102 113 -286 171 -998 316 -618 126 -832 185 -1019 281 -282 145 -311 339
-87 563 83 84 170 133 295 166 111 30 435 25 710 -10 456 -58 618 -43 728 67
94 94 116 252 70 516 -9 51 -23 99 -30 106 -7 8 -10 20 -7 29 9 24 -47 117
-89 147 -83 60 -202 59 -387 -3 -55 -18 -256 -113 -475 -224 -555 -280 -691
-329 -885 -322 -123 5 -173 23 -244 88 -86 79 -167 290 -152 393 9 62 59 141
118 188 69 54 200 116 393 184 318 111 416 158 490 230 60 58 79 105 73 179
-6 70 -56 176 -100 210 -81 61 -175 50 -402 -50 -202 -88 -314 -125 -406 -131
-120 -9 -213 25 -311 114 -84 76 -103 172 -51 254 71 111 196 189 707 443 464
231 607 318 721 438 39 41 84 101 99 132 62 127 26 264 -104 396 -73 73 -128
105 -215 121 -48 9 -69 7 -138 -10 -226 -58 -427 -240 -883 -806 -329 -407
-461 -542 -590 -601 -100 -46 -183 -18 -242 84 -25 42 -28 57 -28 137 0 147
51 261 277 623 236 378 295 519 270 641 -22 105 -117 181 -226 181 -77 0 -132
-26 -205 -99 -79 -78 -147 -179 -301 -446 -223 -387 -310 -499 -435 -562 -63
-32 -117 -37 -180 -18 -142 45 -201 169 -176 366 12 91 47 240 120 500 113
406 90 573 -87 639 -102 38 -197 19 -256 -51 -61 -72 -97 -177 -171 -494 -92
-395 -186 -517 -385 -503 -124 9 -208 75 -242 191 -19 65 -14 290 11 502 26
210 25 364 -2 425 -34 77 -97 114 -192 114 -119 -1 -183 -47 -206 -149 -17
-76 -2 -187 61 -435 62 -246 80 -345 80 -429 0 -173 -68 -238 -259 -248 -117
-7 -188 7 -279 52 -91 46 -161 110 -226 208 -134 203 -207 443 -306 1007 -114
656 -174 868 -287 1021 -88 119 -220 164 -365 124z"/>
<path d="M10577 8019 c-57 -13 -90 -33 -131 -79 -49 -54 -67 -100 -67 -166 0
-123 99 -233 225 -250 134 -19 276 111 276 251 -1 152 -158 279 -303 244z"/>
<path d="M160 7599 c-89 -40 -147 -119 -157 -214 -5 -42 -1 -63 19 -106 47
-103 129 -158 232 -159 74 0 131 26 181 82 49 53 68 101 68 169 1 173 -188
298 -343 228z"/>
<path d="M11610 5724 c-313 -23 -820 -81 -820 -93 1 -17 526 -226 780 -311
387 -130 638 -184 860 -184 128 0 152 3 203 23 66 26 120 69 144 115 25 47 23
161 -4 211 -60 112 -202 180 -458 221 -98 15 -574 27 -705 18z"/>
<path d="M1719 3780 c-959 -124 -1545 -320 -1659 -554 -25 -53 -26 -137 -1
-191 37 -82 142 -145 240 -145 277 1 780 260 1381 712 183 137 272 208 260
207 -3 -1 -102 -13 -221 -29z"/>
</g>
</svg>
